Coordinates
version=1
nRows=9
nColumns=63
inDegrees=yes

Units are S.I. units (second, meters, Newtons, ...)
If the header above contains a line with 'inDegrees', this indicates whether rotational values are in degrees (yes) or radians (no).

endheader
time	pelvis_tilt	pelvis_list	pelvis_rotation	pelvis_tx	pelvis_ty	pelvis_tz	hip_flexion_r	hip_adduction_r	hip_rotation_r	knee_angle_r	knee_angle_r_beta	ankle_angle_r	subtalar_angle_r	mtp_angle_r	hip_flexion_l	hip_adduction_l	hip_rotation_l	knee_angle_l	knee_angle_l_beta	ankle_angle_l	subtalar_angle_l	mtp_angle_l	L5_S1_Flex_Ext	L5_S1_Lat_Bending	L5_S1_axial_rotation	L4_L5_Flex_Ext	L4_L5_Lat_Bending	L4_L5_axial_rotation	L3_L4_Flex_Ext	L3_L4_Lat_Bending	L3_L4_axial_rotation	L2_L3_Flex_Ext	L2_L3_Lat_Bending	L2_L3_axial_rotation	L1_L2_Flex_Ext	L1_L2_Lat_Bending	L1_L2_axial_rotation	L1_T12_Flex_Ext	L1_T12_Lat_Bending	L1_T12_axial_rotation	Abs_r3	Abs_r2	Abs_r1	Abs_t1	Abs_t2	neck_flexion	neck_bending	neck_rotation	arm_flex_r	arm_add_r	arm_rot_r	elbow_flex_r	pro_sup_r	wrist_flex_r	wrist_dev_r	arm_flex_l	arm_add_l	arm_rot_l	elbow_flex_l	pro_sup_l	wrist_flex_l	wrist_dev_l
3.900000	-9.936950	-28.618418	89.093580	0.314132	0.774465	0.858548	35.403560	-4.132651	16.661481	32.246833	0.562813	31.215590	-17.090562	0.000000	28.419975	4.653105	-12.796252	20.832055	0.363588	29.887929	1.657502	0.000000	0.025689	0.561571	0.436449	0.047708	0.746890	0.463727	0.042205	1.365405	0.463727	0.029360	1.365405	0.381893	0.023855	1.145156	0.354615	0.014679	0.869874	0.327337	0.183497	6.352608	2.427397	0.000000	0.000000	4.930765	-16.792319	-4.132936	105.476677	-34.861479	63.812375	41.240125	13.079939	0.278705	7.281088	94.581834	-19.772253	79.342080	92.282570	49.526715	23.333416	6.202870
3.916667	-10.129205	-28.837974	89.712364	0.312398	0.776501	0.860425	35.405351	-4.845358	16.024074	31.696091	0.553201	30.898670	-16.870122	0.000000	28.428913	5.186639	-12.761112	19.862363	0.346664	29.274436	2.805932	0.000000	0.017117	0.558520	0.210708	0.031787	0.742831	0.223877	0.028121	1.357985	0.223877	0.019563	1.357985	0.184369	0.015895	1.138933	0.171200	0.009780	0.865147	0.158031	0.122263	6.318087	1.171894	0.000000	0.000000	5.188481	-17.018407	-3.104749	105.691543	-33.180963	63.307351	39.778830	12.151607	0.253898	7.050175	97.617854	-17.017390	80.074156	87.529586	51.001425	24.986021	6.169521
3.933333	-10.330264	-29.036798	90.307391	0.310708	0.778411	0.862270	35.366478	-5.556111	15.384621	31.129776	0.543317	30.590288	-16.645450	0.000000	28.399255	5.716739	-12.784983	18.882969	0.329570	28.707400	4.035627	0.000000	0.005589	0.556662	0.008731	0.010380	0.740361	0.009277	0.009182	1.353469	0.009277	0.006388	1.353469	0.007640	0.005190	1.135146	0.007094	0.003194	0.862270	0.006548	0.039923	6.297077	0.048558	0.000000	0.000000	5.450437	-17.355488	-2.078357	106.004046	-31.582775	62.849609	38.337634	11.206456	0.077183	6.928065	100.352168	-14.386776	80.679937	82.840170	53.035157	26.799804	6.245258
3.950000	-10.550322	-29.200216	90.837126	0.309129	0.780185	0.863990	35.273116	-6.251839	14.763288	30.550519	0.533207	30.293477	-16.406116	0.000000	28.303047	6.235895	-12.899852	17.887267	0.312192	28.183281	5.322557	0.000000	-0.008945	0.551737	-0.151281	-0.016612	0.733810	-0.160736	-0.014696	1.341494	-0.160736	-0.010224	1.341494	-0.132371	-0.008307	1.125102	-0.122916	-0.005111	0.854641	-0.113461	-0.063896	6.241360	-0.841379	0.000000	0.000000	5.620108	-17.728079	-1.304434	106.368131	-30.262314	62.464741	37.070074	10.101260	-0.226420	6.912655	102.856293	-11.842716	81.211318	78.259442	55.857118	28.665485	6.129481
3.966667	-10.813812	-29.339770	91.255144	0.307742	0.781782	0.865546	35.147092	-6.924646	14.234142	29.970753	0.523088	29.999848	-16.206717	0.000000	28.157841	6.743762	-13.150939	16.902793	0.295009	27.697521	6.642684	0.000000	-0.024191	0.540122	-0.277016	-0.044924	0.718362	-0.294329	-0.039743	1.313253	-0.294329	-0.027647	1.313253	-0.242389	-0.022463	1.101417	-0.225075	-0.013823	0.836649	-0.207762	-0.172791	6.109970	-1.540678	0.000000	0.000000	5.743307	-18.104235	-0.727682	106.679832	-29.143810	61.915959	35.977691	8.856116	-0.680028	7.045297	105.024160	-9.496205	81.459923	73.979308	60.416714	30.188991	5.695573
3.983333	-11.078263	-29.439694	91.563044	0.306542	0.783229	0.866900	34.966580	-7.537417	13.770280	29.376816	0.512722	29.707534	-16.008956	0.000000	27.949420	7.201522	-13.509674	15.942219	0.278244	27.259023	7.951878	0.000000	-0.042426	0.526750	-0.366328	-0.078790	0.700578	-0.389224	-0.069702	1.280740	-0.389224	-0.048489	1.280740	-0.320537	-0.039397	1.074149	-0.297642	-0.024242	0.815936	-0.274746	-0.303048	5.958702	-2.037408	0.000000	0.000000	5.815418	-18.467993	-0.343923	106.977318	-28.253256	61.371422	35.086590	7.433896	-1.244551	7.245815	106.896493	-7.378249	81.666098	70.063807	65.463449	31.047310	4.969719
4.000000	-11.323796	-29.505353	91.755230	0.305509	0.784527	0.868036	34.740072	-8.064093	13.391242	28.767299	0.502084	29.413392	-15.823348	0.000000	27.692954	7.584098	-13.990367	15.028930	0.262304	26.869433	9.249837	0.000000	-0.062422	0.514816	-0.420116	-0.115923	0.684705	-0.446373	-0.102552	1.251723	-0.446373	-0.071342	1.251723	-0.367602	-0.057965	1.049812	-0.341344	-0.035668	0.797449	-0.315087	-0.445871	5.823698	-2.336559	0.000000	0.000000	5.845983	-18.839896	-0.126525	107.292377	-27.568112	60.956242	34.372191	5.964318	-1.871944	7.457069	108.431679	-5.515279	81.726539	66.546341	70.688554	31.151350	4.012152
4.016667	-11.529765	-29.541082	91.867672	0.304615	0.785678	0.868955	34.472079	-8.506436	13.051228	28.140657	0.491147	29.127934	-15.623563	0.000000	27.404479	7.890673	-14.492389	14.183061	0.247541	26.520637	10.438628	0.000000	-0.083365	0.506368	-0.449511	-0.154818	0.673470	-0.477606	-0.136961	1.231183	-0.477606	-0.095278	1.231183	-0.393322	-0.077413	1.032586	-0.365228	-0.047635	0.784364	-0.337133	-0.595471	5.728137	-2.500046	0.000000	0.000000	5.850722	-19.196444	-0.024043	107.628878	-27.053241	60.717491	33.814239	4.403970	-2.479278	7.629414	109.667707	-3.919824	81.814663	63.456754	74.872004	30.454432	2.980370
4.033333	-11.671666	-29.548223	91.915739	0.303821	0.786695	0.869677	34.166585	-8.847522	12.753541	27.495364	0.479885	28.849069	-15.414116	0.000000	27.098468	8.103785	-14.996476	13.427902	0.234361	26.217742	11.519467	0.000000	-0.105349	0.505125	-0.460075	-0.195644	0.671816	-0.488830	-0.173078	1.228161	-0.488830	-0.120404	1.228161	-0.402566	-0.097827	1.030051	-0.373811	-0.060197	0.782439	-0.345057	-0.752500	5.714076	-2.558802	0.000000	0.000000	5.855165	-19.550666	0.021744	108.032457	-26.663229	60.795256	33.350525	3.001406	-3.009101	7.741300	110.599710	-2.592228	81.840962	60.775831	77.489215	29.081338	2.104598
